<svg version="1.1" id="Layer_1" xmlns="http://www.w3.org/2000/svg" xmlns:xlink="http://www.w3.org/1999/xlink" x="0px" y="0px"
	 width="100%" viewBox="0 0 512 512" xml:space="preserve">
<path 
	d="
M220.,1. 
	C317.620911,1. 415.241821,1. 512.931396,1. 
	C512.931396,171.666656 512.931396,342.333344 512.931396,513. 
	C471.230164,513. 429.582916,513. 387.290527,512.659302 
	C389.148285,510.578369 391.651184,508.838043 394.375427,507.058319 
	C394.596771,507.018921 395.024353,506.879913 395.285767,506.877686 
	C395.748322,506.600494 395.949463,506.325531 396.430878,505.916351 
	C397.825928,504.568420 398.940735,503.354675 400.332672,501.987366 
	C400.788971,501.237152 400.968109,500.640533 401.455200,499.878510 
	C403.187683,495.941071 405.013092,492.264008 405.934265,488.372894 
	C407.062897,483.605377 407.373444,478.648956 408.144775,473.791229 
	C410.738586,457.455536 413.438293,441.136536 415.983368,424.793335 
	C417.799561,413.130646 419.332367,401.423645 421.173279,389.765076 
	C423.343872,376.018494 425.831116,362.321472 427.958679,348.568573 
	C430.164185,334.311859 432.003571,319.998718 434.185394,305.738159 
	C436.686707,289.389282 439.441956,273.079468 441.985168,256.736816 
	C443.799866,245.075378 445.364899,233.375015 447.189545,221.715210 
	C449.417023,207.481201 451.799591,193.271484 454.499023,179.029053 
	C463.947540,177.577850 468.167145,170.145203 465.347076,160.988449 
	C478.818756,148.133255 485.322235,132.408371 484.764557,114.329857 
	C484.514435,106.221352 482.625458,97.826157 479.748718,90.215523 
	C475.509552,79.000542 468.497162,69.370926 457.792542,62.658005 
	C451.875092,59.524139 446.003723,56.738781 439.972656,53.633881 
	C438.884918,53.264061 437.956848,53.213791 436.807251,53.088882 
	C436.585724,53.014236 436.121643,52.957321 435.908325,52.600605 
	C426.134033,52.214348 416.573090,52.184803 406.619324,52.089882 
	C391.516022,55.486561 379.486176,63.201382 369.710205,74.975388 
	C369.362030,75.369507 369.261627,75.673302 369.084991,76.198990 
	C369.008759,76.420883 368.962646,76.887848 368.708679,76.979050 
	C368.269440,77.367363 368.084229,77.664474 367.696808,77.977173 
	C367.494598,77.992767 367.093567,77.932083 366.963074,77.623596 
	C362.862976,73.681000 359.181763,69.650528 354.857452,66.503799 
	C348.027161,61.533489 341.129578,56.361725 332.063232,55.552765 
	C327.381012,54.085487 322.749756,53.022953 318.028870,51.709557 
	C317.632446,51.359089 317.325653,51.259491 316.584473,51.086899 
	C314.099487,51.064640 312.048859,51.115372 309.536438,51.093956 
	C301.490448,51.687881 293.803680,51.819241 286.365143,53.245449 
	C282.641754,53.959351 281.383514,53.383469 280.860840,49.663010 
	C280.235687,48.555492 279.469482,47.879566 279.026825,47.034218 
	C271.374237,32.419209 260.312927,21.105482 245.910172,12.532772 
	C237.499908,9.119100 229.237427,6.052279 221.016174,2.878727 
	C220.510986,2.683713 220.331192,1.645758 220.,1. 
z"/>
<path  opacity="1." stroke="none" 
	d="
M127.,513. 
	C85.022469,513. 43.044941,513. 1.033706,513. 
	C1.033706,342.447113 1.033706,171.894226 1.033706,1. 
	C60.687126,1. 120.374908,1. 180.815369,1.295520 
	C180.713242,2.114711 179.858414,2.638381 178.618378,3.095509 
	C177.336655,3.350533 176.453888,3.719003 175.541550,3.986685 
	C159.768265,8.614586 146.127869,16.718544 134.642288,28.998032 
	C132.842957,31.077848 131.356033,33.012005 129.552856,35.091724 
	C125.300713,41.831192 121.364845,48.425098 117.801720,54.394539 
	C111.590736,53.268478 105.794640,52.217636 99.535843,51.093304 
	C97.100067,51.013725 95.126053,51.044712 93.154060,50.995174 
	C84.366646,50.774441 75.862816,51.908962 67.632256,56.096680 
	C56.052307,61.181324 46.808884,68.759476 40.042007,79.070885 
	C31.095619,92.703476 27.403824,107.470650 29.859333,123.935204 
	C32.054169,138.651886 37.865528,151.118851 48.787666,161.471252 
	C45.856529,170.155502 50.695065,177.797501 58.542763,179.097672 
	C59.169121,179.201462 59.620689,180.360291 60.100010,181.432556 
	C60.359741,183.236679 60.711479,184.629761 60.979397,186.038757 
	C62.056332,191.702530 63.107327,197.371231 64.100113,203.469452 
	C65.792274,216.155396 67.477997,228.421265 69.331612,240.661697 
	C71.476593,254.826111 73.752373,268.970856 76.003677,283.119019 
	C77.563187,292.919617 79.249382,302.700500 80.748657,312.510132 
	C82.571007,324.433655 84.232353,336.381714 86.008636,348.312408 
	C87.424194,357.820160 88.892937,367.320068 90.364655,376.819336 
	C92.284927,389.213898 94.231445,401.604431 96.240311,414.395844 
	C97.229393,421.230957 98.066544,427.679199 99.075562,434.100433 
	C101.677765,450.660431 104.475670,467.190582 106.959045,483.768066 
	C108.457825,493.772827 111.476471,502.723175 120.955658,508.074249 
	C121.005569,508.053833 120.899918,508.070038 120.988075,508.313812 
	C121.376663,508.651581 121.677094,508.745605 122.312027,508.994354 
	C124.097687,510.432709 125.548843,511.716370 127.,513. 
z"/>
<path fill="#F5F3F6" opacity="1.000000" stroke="none" 
	d="
M229.000000,513.000000 
	C211.979111,513.000000 194.958206,513.000000 177.282501,512.711304 
	C167.590363,508.783600 163.466034,501.229218 162.097321,492.371796 
	C160.245575,480.388184 159.264481,468.265839 158.050110,456.188904 
	C155.537064,431.197113 153.144897,406.193268 150.650192,381.199615 
	C148.139099,356.041626 145.557785,330.890625 143.018616,305.735443 
	C140.780243,283.560303 138.514648,261.387787 136.345459,239.205841 
	C135.197067,227.462708 134.228394,215.702011 133.635010,203.964661 
	C149.061554,203.985703 164.031693,203.991318 179.470306,203.997620 
	C191.267456,203.991364 202.596130,203.984451 214.068359,204.381760 
	C214.476425,210.772797 214.794678,216.757797 214.996033,222.746735 
	C215.784851,246.209930 216.502151,269.675568 217.309082,293.138123 
	C219.523788,357.533020 221.613739,421.933075 224.184921,486.313873 
	C224.542175,495.259064 227.334778,504.107025 229.000000,513.000000 
z"/>
<path fill="#EEECF5" opacity="1.000000" stroke="none" 
	d="
M337.000000,513.000000 
	C319.645782,513.000000 302.291534,513.000000 284.692047,512.727539 
	C289.415039,505.551605 289.490051,497.372650 289.809052,489.494751 
	C291.338409,451.727997 292.567963,413.948883 293.840210,376.171997 
	C295.347870,331.404633 296.749969,286.633698 298.286774,241.867340 
	C298.720459,229.233109 299.465637,216.609558 300.532104,203.985031 
	C319.061890,204.448517 337.338104,202.079971 355.221924,208.271790 
	C363.245239,213.686340 371.043365,218.837814 378.924530,224.241913 
	C379.060150,224.663803 379.112701,224.833115 379.074158,225.423401 
	C378.483093,230.630295 377.957733,235.413727 377.487427,240.202576 
	C375.071716,264.801422 372.670166,289.401642 370.157654,314.425903 
	C368.404907,331.082947 366.725250,347.312225 365.117767,363.548645 
	C361.016937,404.968597 357.025330,446.399536 352.814789,487.808289 
	C351.711578,498.658020 347.612549,507.958282 337.000000,513.000000 
z"/>
<path fill="#FC3846" opacity="1.000000" stroke="none" 
	d="
M300.067993,203.981110 
	C299.465637,216.609558 298.720459,229.233109 298.286774,241.867340 
	C296.749969,286.633698 295.347870,331.404633 293.840210,376.171997 
	C292.567963,413.948883 291.338409,451.727997 289.809052,489.494751 
	C289.490051,497.372650 289.415039,505.551605 284.223389,512.727539 
	C277.978851,513.000000 271.957703,513.000000 265.468262,512.531372 
	C264.998383,409.382751 264.996765,306.702820 265.412781,204.014297 
	C267.222412,203.994598 268.614380,203.983490 270.474609,203.978943 
	C280.480499,204.011154 290.018188,204.036789 299.682007,204.030182 
	C299.808136,203.997955 300.067993,203.981110 300.067993,203.981110 
z"/>
<path fill="#FD5864" opacity="1.000000" stroke="none" 
	d="
M133.178604,203.949234 
	C134.228394,215.702011 135.197067,227.462708 136.345459,239.205841 
	C138.514648,261.387787 140.780243,283.560303 143.018616,305.735443 
	C145.557785,330.890625 148.139099,356.041626 150.650192,381.199615 
	C153.144897,406.193268 155.537064,431.197113 158.050110,456.188904 
	C159.264481,468.265839 160.245575,480.388184 162.097321,492.371796 
	C163.466034,501.229218 167.590363,508.783600 176.813843,512.711304 
	C160.645767,513.000000 144.291550,513.000000 127.468658,513.000000 
	C125.548843,511.716370 124.097687,510.432709 122.180298,508.806793 
	C121.485855,508.243958 121.214470,508.112457 120.899918,508.070038 
	C120.899918,508.070038 121.005569,508.053833 120.988235,507.634674 
	C121.313942,503.926636 121.954971,500.637909 121.956696,497.348846 
	C122.007736,399.577576 121.995422,301.806274 122.447662,204.019867 
	C126.193550,204.017822 129.484909,204.030884 132.870178,203.991867 
	C132.964081,203.939789 133.178604,203.949234 133.178604,203.949234 
z"/>
<path fill="#FC4250" opacity="1.000000" stroke="none" 
	d="
M229.466110,513.000000 
	C227.334778,504.107025 224.542175,495.259064 224.184921,486.313873 
	C221.613739,421.933075 219.523788,357.533020 217.309082,293.138123 
	C216.502151,269.675568 215.784851,246.209930 214.996033,222.746735 
	C214.794678,216.757797 214.476425,210.772797 214.207581,204.380417 
	C214.203293,203.974854 214.466461,204.065979 214.902603,204.033203 
	C224.226898,203.992310 233.115067,203.984192 242.334976,203.983826 
	C243.108994,204.002060 243.551239,204.012543 243.995453,204.490234 
	C243.998260,307.638306 243.999130,410.319153 244.000000,513.000000 
	C239.310745,513.000000 234.621490,513.000000 229.466110,513.000000 
z"/>
<path fill="#FC3C4A" opacity="1.000000" stroke="none" 
	d="
M244.468536,513.000000 
	C243.999130,410.319153 243.998260,307.638306 244.464615,204.479736 
	C251.619614,204.008987 258.307373,204.015945 264.995148,204.022888 
	C264.996765,306.702820 264.998383,409.382751 265.000000,512.531372 
	C258.312347,513.000000 251.624710,513.000000 244.468536,513.000000 
z"/>
<path fill="#CA1B28" opacity="1.000000" stroke="none" 
	d="
M394.154114,507.097717 
	C391.651184,508.838043 389.148285,510.578369 386.822693,512.659302 
	C373.645782,513.000000 360.291534,513.000000 346.517395,512.655945 
	C347.112823,511.521667 348.028656,510.529297 349.158997,509.972778 
	C359.510864,504.876587 364.449707,496.177856 366.019409,485.120544 
	C366.809296,479.556702 367.893066,474.034149 368.658875,468.467468 
	C370.191406,457.327820 371.596558,446.170624 373.321747,434.743866 
	C374.464111,428.928864 375.340637,423.390900 376.213562,417.852417 
	C379.141571,399.274628 382.012909,380.687622 385.018707,362.122406 
	C386.539948,352.726318 388.303375,343.369476 390.254883,334.289368 
	C390.701630,336.556915 390.980103,338.529907 390.981079,340.503052 
	C391.005219,389.298767 390.999969,438.094452 391.000092,486.890167 
	C391.000092,492.052856 390.751160,497.234741 391.146179,502.367065 
	C391.272705,504.011353 393.103210,505.524536 394.154114,507.097717 
z"/>
<path fill="#F4D905" opacity="1.000000" stroke="none" 
	d="
M219.571533,1.000002 
	C220.331192,1.645758 220.510986,2.683713 221.016174,2.878727 
	C229.237427,6.052279 237.499908,9.119100 245.890259,13.009981 
	C246.018311,31.590652 246.049622,49.371574 245.955582,67.151833 
	C245.941757,69.766075 245.332916,72.377159 244.685471,74.854538 
	C240.979813,71.737190 237.515945,68.831894 234.224243,65.743118 
	C232.342453,63.977318 230.740936,61.912815 228.971558,59.640438 
	C221.951340,52.868271 214.972763,46.438461 207.984222,39.585388 
	C207.649292,30.128792 207.416748,21.090832 206.964920,12.063849 
	C206.691376,6.598813 206.897034,1.669065 214.000000,1.000000 
	C215.714355,1.000000 217.428711,1.000000 219.571533,1.000002 
z"/>
<path fill="#F02A38" opacity="1.000000" stroke="none" 
	d="
M373.054260,435.020691 
	C371.596558,446.170624 370.191406,457.327820 368.658875,468.467468 
	C367.893066,474.034149 366.809296,479.556702 366.019409,485.120544 
	C364.449707,496.177856 359.510864,504.876587 349.158997,509.972778 
	C348.028656,510.529297 347.112823,511.521667 346.048737,512.655945 
	C343.299988,513.000000 340.599976,513.000000 337.449982,513.000000 
	C347.612549,507.958282 351.711578,498.658020 352.814789,487.808289 
	C357.025330,446.399536 361.016937,404.968597 365.117767,363.548645 
	C366.725250,347.312225 368.404907,331.082947 370.527649,314.550049 
	C371.335724,316.131195 371.954651,318.012268 371.957611,319.894287 
	C372.014801,356.380341 371.984283,392.866547 372.044891,429.352600 
	C372.048035,431.242523 372.702850,433.131348 373.054260,435.020691 
z"/>
<path fill="#F5DC0D" opacity="1.000000" stroke="none" 
	d="
M213.531342,1.000000 
	C206.897034,1.669065 206.691376,6.598813 206.964920,12.063849 
	C207.416748,21.090832 207.649292,30.128792 207.665527,39.442677 
	C203.237167,37.817059 199.117508,35.910892 194.763916,33.736824 
	C189.020401,31.645079 183.510818,29.821226 178.000458,27.563429 
	C176.748215,19.073904 176.129364,11.044823 179.003586,3.162051 
	C179.858414,2.638381 180.713242,2.114711 181.284027,1.295520 
	C191.687561,1.000000 202.375122,1.000000 213.531342,1.000000 
z"/>
<path fill="#C51926" opacity="1.000000" stroke="none" 
	d="
M394.375427,507.058319 
	C393.103210,505.524536 391.272705,504.011353 391.146179,502.367065 
	C390.751160,497.234741 391.000092,492.052856 391.000092,486.890167 
	C390.999969,438.094452 391.005219,389.298767 390.981079,340.503052 
	C390.980103,338.529907 390.701630,336.556915 390.263336,333.890167 
	C389.990479,332.131927 390.006714,331.067383 390.342529,329.951508 
	C390.764465,328.929443 390.866791,327.958649 390.973206,326.558563 
	C392.510315,315.344025 394.026245,304.556335 395.581024,293.774261 
	C397.232788,282.319977 399.508240,270.911072 396.999908,259.268921 
	C394.184082,246.199448 388.909546,234.447495 379.165283,225.002426 
	C379.112701,224.833115 379.060150,224.663803 379.005798,223.813446 
	C380.404663,208.415253 381.805298,193.698120 383.648743,178.995010 
	C387.390503,178.990677 390.689514,178.972336 394.457581,178.967194 
	C401.614594,178.975861 408.302551,178.971329 415.459412,178.976089 
	C422.283875,178.985672 428.639404,178.985962 435.463562,178.990753 
	C441.993134,179.013916 448.054138,179.032593 454.115112,179.051254 
	C451.799591,193.271484 449.417023,207.481201 447.189545,221.715210 
	C445.364899,233.375015 443.799866,245.075378 441.985168,256.736816 
	C439.441956,273.079468 436.686707,289.389282 434.185394,305.738159 
	C432.003571,319.998718 430.164185,334.311859 427.958679,348.568573 
	C425.831116,362.321472 423.343872,376.018494 421.173279,389.765076 
	C419.332367,401.423645 417.799561,413.130646 415.983368,424.793335 
	C413.438293,441.136536 410.738586,457.455536 408.144775,473.791229 
	C407.373444,478.648956 407.062897,483.605377 405.934265,488.372894 
	C405.013092,492.264008 403.187683,495.941071 401.178253,500.036957 
	C400.414032,500.954193 400.234741,501.547546 400.055511,502.140930 
	C398.940735,503.354675 397.825928,504.568420 396.199127,505.987854 
	C395.384308,506.343201 395.163361,506.571991 395.024353,506.879913 
	C395.024353,506.879913 394.596771,507.018921 394.375427,507.058319 
z"/>
<path fill="#F4D905" opacity="1.000000" stroke="none" 
	d="
M367.093567,77.932083 
	C367.093567,77.932083 367.494598,77.992767 367.974304,77.993980 
	C368.638733,77.995445 368.823456,77.995705 369.375793,77.985596 
	C370.478760,77.967628 371.214142,77.960014 372.286011,78.136322 
	C373.414948,80.352806 374.883026,82.380875 374.896576,84.418625 
	C375.049988,107.450127 374.980408,130.483109 374.728729,153.636353 
	C374.324188,153.834488 374.161499,153.911942 373.534363,153.920242 
	C365.046234,153.899902 357.022491,153.948730 348.534454,153.928009 
	C341.379456,153.750229 334.688812,153.642014 327.998596,153.094345 
	C327.999786,133.442932 328.000488,114.230965 328.337463,95.012253 
	C329.454315,94.681396 330.234924,94.357277 331.406433,94.023773 
	C334.405151,93.063652 337.430298,92.664948 339.547302,91.064804 
	C347.865875,84.777115 357.136597,80.682114 367.093567,77.932083 
z"/>
<path fill="#FD9D33" opacity="1.000000" stroke="none" 
	d="
M457.838623,63.006516 
	C468.497162,69.370926 475.509552,79.000542 479.748718,90.215523 
	C482.625458,97.826157 484.514435,106.221352 484.764557,114.329857 
	C485.322235,132.408371 478.818756,148.133255 465.092041,160.762970 
	C461.347809,158.353683 458.170319,156.034546 454.994598,153.264587 
	C454.997589,124.851997 454.982971,96.890198 455.029083,68.928497 
	C455.032928,66.607925 454.088745,63.636578 457.838623,63.006516 
z"/>
<path fill="#FCA32F" opacity="1.000000" stroke="none" 
	d="
M457.792542,62.658005 
	C454.088745,63.636578 455.032928,66.607925 455.029083,68.928497 
	C454.982971,96.890198 454.997589,124.851997 454.534607,153.324066 
	C450.346527,153.736862 446.620209,153.639359 442.922668,153.152313 
	C443.298248,150.154510 443.789368,147.556046 443.967987,144.936279 
	C444.982513,130.054245 440.798340,116.544319 432.995361,103.546585 
	C432.998566,88.508949 432.871704,73.938652 433.139282,59.375584 
	C433.178925,57.218624 435.081146,55.095886 436.121643,52.957317 
	C436.121643,52.957321 436.585724,53.014236 437.048340,53.319000 
	C438.384766,53.733650 439.258575,53.843536 440.132385,53.953426 
	C446.003723,56.738781 451.875092,59.524139 457.792542,62.658005 
z"/>
<path fill="#F5D109" opacity="1.000000" stroke="none" 
	d="
M244.999390,74.989700 
	C245.332916,72.377159 245.941757,69.766075 245.955582,67.151833 
	C246.049622,49.371574 246.018311,31.590652 246.047363,13.332736 
	C260.312927,21.105482 271.374237,32.419209 279.026825,47.034218 
	C279.469482,47.879566 280.235687,48.555492 280.464142,49.671196 
	C279.051636,51.579628 277.208252,53.092365 277.140778,54.680569 
	C276.825073,62.110641 276.998749,69.561508 276.529419,77.004074 
	C269.706329,77.005600 263.351379,77.008011 256.557800,77.008347 
	C252.412598,76.334076 248.705994,75.661888 244.999390,74.989700 
z"/>
<path fill="#FBA82A" opacity="1.000000" stroke="none" 
	d="
M435.908325,52.600601 
	C435.081146,55.095886 433.178925,57.218624 433.139282,59.375584 
	C432.871704,73.938652 432.998566,88.508949 432.699036,103.388741 
	C425.566559,95.266045 418.052612,87.632263 407.993103,82.557159 
	C407.656769,72.142281 407.334473,62.148769 407.012146,52.155258 
	C416.573090,52.184803 426.134033,52.214348 435.908325,52.600601 
z"/>
<path fill="#F8C215" opacity="1.000000" stroke="none" 
	d="
M331.015564,94.033157 
	C330.234924,94.357277 329.454315,94.681396 327.900269,95.006096 
	C319.293945,95.166313 312.582336,92.502312 306.995422,86.541931 
	C306.998291,77.906197 307.163849,69.735077 306.928619,61.575504 
	C306.815582,57.654648 307.134399,54.098114 309.998199,51.166107 
	C312.048859,51.115372 314.099487,51.064640 316.720947,51.277618 
	C317.524658,51.765152 317.800262,51.904846 318.118500,51.960419 
	C322.749756,53.022953 327.381012,54.085487 331.665039,55.616634 
	C330.545319,57.697567 329.143799,59.294807 329.104706,60.924713 
	C328.887268,69.993942 328.883728,79.073761 329.091858,88.143417 
	C329.137207,90.120346 330.343781,92.070618 331.015564,94.033157 
z"/>
<path fill="#F7C810" opacity="1.000000" stroke="none" 
	d="
M309.536438,51.093956 
	C307.134399,54.098114 306.815582,57.654648 306.928619,61.575504 
	C307.163849,69.735077 306.998291,77.906197 306.634949,86.499107 
	C301.181671,84.950531 296.090820,82.975418 290.745087,80.727585 
	C285.992645,79.304886 281.495087,78.154915 276.997559,77.004951 
	C276.998749,69.561508 276.825073,62.110641 277.140778,54.680569 
	C277.208252,53.092365 279.051636,51.579628 280.473633,50.023945 
	C281.383514,53.383469 282.641754,53.959351 286.365143,53.245449 
	C293.803680,51.819241 301.490448,51.687881 309.536438,51.093956 
z"/>
<path fill="#F8BD19" opacity="1.000000" stroke="none" 
	d="
M331.406433,94.023773 
	C330.343781,92.070618 329.137207,90.120346 329.091858,88.143417 
	C328.883728,79.073761 328.887268,69.993942 329.104706,60.924713 
	C329.143799,59.294807 330.545319,57.697567 331.716003,56.021378 
	C341.129578,56.361725 348.027161,61.533489 354.857452,66.503799 
	C359.181763,69.650528 362.862976,73.681000 366.963074,77.623596 
	C357.136597,80.682114 347.865875,84.777115 339.547302,91.064804 
	C337.430298,92.664948 334.405151,93.063652 331.406433,94.023773 
z"/>
<path fill="#FAB024" opacity="1.000000" stroke="none" 
	d="
M406.619324,52.089882 
	C407.334473,62.148769 407.656769,72.142281 407.694458,82.442238 
	C406.604950,82.504280 405.800049,82.259880 404.667664,81.858948 
	C393.925079,77.154938 383.168335,75.558334 371.949554,77.952408 
	C371.214142,77.960014 370.478760,77.967628 369.368774,77.708496 
	C368.983734,77.257118 368.973206,77.072487 368.962646,76.887848 
	C368.962646,76.887848 369.008759,76.420883 369.273895,76.063454 
	C369.749817,75.468697 369.889465,75.195045 369.957947,74.885078 
	C379.486176,63.201382 391.516022,55.486561 406.619324,52.089882 
z"/>
<path fill="#D61F2C" opacity="1.000000" stroke="none" 
	d="
M442.893921,153.541840 
	C446.620209,153.639359 450.346527,153.736862 454.532837,153.774887 
	C458.170319,156.034546 461.347809,158.353683 464.780396,160.898285 
	C468.167145,170.145203 463.947540,177.577850 454.499023,179.029053 
	C448.054138,179.032593 441.993134,179.013916 435.530853,178.632721 
	C438.868744,176.081650 439.310211,172.685440 439.070770,168.721039 
	C438.775146,163.827011 439.000763,158.901474 439.389465,153.924774 
	C440.816498,153.753952 441.855194,153.647888 442.893921,153.541840 
z"/>
<path fill="#FBA82A" opacity="1.000000" stroke="none" 
	d="
M439.972656,53.633881 
	C439.258575,53.843536 438.384766,53.733650 437.269897,53.393646 
	C437.956848,53.213791 438.884918,53.264061 439.972656,53.633881 
z"/>
<path fill="#CA1B28" opacity="1.000000" stroke="none" 
	d="
M400.332642,501.987366 
	C400.234741,501.547546 400.414032,500.954193 400.870300,500.202393 
	C400.968109,500.640533 400.788971,501.237152 400.332642,501.987366 
z"/>
<path fill="#F5D208" opacity="1.000000" stroke="none" 
	d="
M369.710205,74.975388 
	C369.889465,75.195045 369.749817,75.468697 369.350128,75.841568 
	C369.261627,75.673302 369.362030,75.369507 369.710205,74.975388 
z"/>
<path fill="#F7C810" opacity="1.000000" stroke="none" 
	d="
M318.028870,51.709557 
	C317.800262,51.904846 317.524658,51.765152 317.155273,51.350613 
	C317.325653,51.259491 317.632446,51.359089 318.028870,51.709557 
z"/>
<path fill="#F5D208" opacity="1.000000" stroke="none" 
	d="
M368.708679,76.979050 
	C368.973206,77.072487 368.983734,77.257118 369.001221,77.718857 
	C368.823456,77.995705 368.638733,77.995445 368.176514,77.978386 
	C368.084229,77.664474 368.269440,77.367363 368.708679,76.979050 
z"/>
<path fill="#CA1B28" opacity="1.000000" stroke="none" 
	d="
M395.285767,506.877686 
	C395.163361,506.571991 395.384308,506.343201 395.918884,506.122070 
	C395.949463,506.325531 395.748322,506.600494 395.285767,506.877686 
z"/>
<path fill="#FE5E69" opacity="1.000000" stroke="none" 
	d="
M121.993134,204.034958 
	C121.995422,301.806274 122.007736,399.577576 121.956696,497.348846 
	C121.954971,500.637909 121.313942,503.926636 120.938324,507.655090 
	C111.476471,502.723175 108.457825,493.772827 106.959045,483.768066 
	C104.475670,467.190582 101.677765,450.660431 99.075562,434.100433 
	C98.066544,427.679199 97.229393,421.230957 96.597610,414.306335 
	C97.587517,410.861755 98.904938,407.907013 98.910263,404.949890 
	C99.030907,337.983551 99.007820,271.016937 99.004311,204.020370 
	C98.996887,203.990341 98.983223,203.931198 99.453674,203.951233 
	C107.280457,203.992493 114.636795,204.013733 121.993134,204.034958 
z"/>
<path fill="#FE636E" opacity="1.000000" stroke="none" 
	d="
M99.011734,204.050400 
	C99.007820,271.016937 99.030907,337.983551 98.910263,404.949890 
	C98.904938,407.907013 97.587517,410.861755 96.523972,413.907166 
	C94.231445,401.604431 92.284927,389.213898 90.364655,376.819336 
	C88.892937,367.320068 87.424194,357.820160 86.008636,348.312408 
	C84.232353,336.381714 82.571007,324.433655 80.748657,312.510132 
	C79.249382,302.700500 77.563187,292.919617 76.003677,283.119019 
	C73.752373,268.970856 71.476593,254.826111 69.331612,240.661697 
	C67.477997,228.421265 65.792274,216.155396 64.467148,203.645630 
	C66.686005,203.590225 68.468781,203.948959 70.254295,203.963165 
	C79.839729,204.039536 89.425850,204.030167 99.011734,204.050400 
z"/>
<path fill="#FAE734" opacity="1.000000" stroke="none" 
	d="
M129.869125,34.946159 
	C131.356033,33.012005 132.842957,31.077848 134.868408,29.288513 
	C144.603882,28.624010 153.800827,27.814690 162.998596,27.473419 
	C162.999710,69.812187 163.000000,111.682915 162.542221,153.657944 
	C156.389435,153.841385 150.694717,153.920532 144.539536,153.941788 
	C140.052597,153.776581 136.026108,153.669250 131.999832,153.120728 
	C132.000015,115.466362 132.033478,78.253067 131.909134,41.040314 
	C131.902344,39.006680 130.579422,36.977444 129.869125,34.946159 
z"/>
<path fill="#FBE93B" opacity="1.000000" stroke="none" 
	d="
M129.552856,35.091728 
	C130.579422,36.977444 131.902344,39.006680 131.909134,41.040314 
	C132.033478,78.253067 132.000015,115.466362 131.540634,153.224594 
	C123.720924,153.845184 116.360619,153.920715 108.552155,153.942612 
	C105.402756,153.781601 102.701515,153.674240 100.000214,153.125351 
	C99.999611,118.844826 99.999077,85.005814 99.998543,51.166794 
	C105.794640,52.217636 111.590736,53.268478 117.801720,54.394539 
	C121.364845,48.425098 125.300713,41.831192 129.552856,35.091728 
z"/>
<path fill="#FCEB43" opacity="1.000000" stroke="none" 
	d="
M99.535843,51.093307 
	C99.999077,85.005814 99.999611,118.844826 99.544876,153.229324 
	C94.726295,153.849854 90.362999,153.924896 85.534088,153.947479 
	C79.379112,153.787827 73.689735,153.680618 68.000259,153.131500 
	C67.999596,120.515373 67.999023,88.341171 67.998451,56.166965 
	C75.862816,51.908962 84.366646,50.774441 93.154060,50.995174 
	C95.126053,51.044712 97.100067,51.013725 99.535843,51.093307 
z"/>
<path fill="#FDED4B" opacity="1.000000" stroke="none" 
	d="
M67.632256,56.096680 
	C67.999023,88.341171 67.999596,120.515373 67.549667,153.235382 
	C59.911320,153.406403 53.011902,153.748596 48.928322,161.090729 
	C37.865528,151.118851 32.054169,138.651886 29.859333,123.935204 
	C27.403824,107.470650 31.095619,92.703476 40.042007,79.070885 
	C46.808884,68.759476 56.052307,61.181324 67.632256,56.096680 
z"/>
<path fill="#FE636E" opacity="1.000000" stroke="none" 
	d="
M48.787666,161.471252 
	C53.011902,153.748596 59.911320,153.406403 67.549767,153.677307 
	C73.689735,153.680618 79.379112,153.787827 85.534088,154.416138 
	C85.994812,162.930466 85.989929,170.923676 85.517700,178.935089 
	C78.467224,178.971802 71.878960,178.853790 65.304398,179.100662 
	C63.565750,179.165939 61.869308,180.355499 60.153488,181.028809 
	C59.620689,180.360291 59.169121,179.201462 58.542763,179.097672 
	C50.695065,177.797501 45.856529,170.155502 48.787666,161.471252 
z"/>
<path fill="#FC3E4B" opacity="1.000000" stroke="none" 
	d="
M60.100014,181.432556 
	C61.869308,180.355499 63.565750,179.165939 65.304398,179.100662 
	C71.878960,178.853790 78.467224,178.971802 85.968903,178.960938 
	C89.593102,178.984985 92.298744,179.001343 95.003418,179.485199 
	C95.001938,181.932800 94.863861,183.924301 95.026405,185.890945 
	C95.537468,192.074326 92.756241,199.000168 98.983223,203.931198 
	C98.983223,203.931198 98.996887,203.990341 99.004311,204.020370 
	C89.425850,204.030167 79.839729,204.039536 70.254295,203.963165 
	C68.468781,203.948959 66.686005,203.590225 64.534935,203.214310 
	C63.107327,197.371231 62.056332,191.702530 60.979397,186.038757 
	C60.711479,184.629761 60.359741,183.236679 60.100014,181.432556 
z"/>
<path fill="#F6DE15" opacity="1.000000" stroke="none" 
	d="
M162.997787,27.005369 
	C153.800827,27.814690 144.603882,28.624010 135.180817,29.142849 
	C146.127869,16.718544 159.768265,8.614586 175.541550,3.986685 
	C176.453888,3.719003 177.336655,3.350533 178.618378,3.095510 
	C176.129364,11.044823 176.748215,19.073904 177.567825,27.565361 
	C172.423233,27.669281 167.710510,27.337324 162.997787,27.005369 
z"/>
<path fill="#FE5E69" opacity="1.000000" stroke="none" 
	d="
M120.988075,508.313812 
	C121.214470,508.112457 121.485855,508.243958 121.845795,508.652069 
	C121.677094,508.745605 121.376663,508.651581 120.988075,508.313812 
z"/>
<path fill="#EEECF5" opacity="1.000000" stroke="none" 
	d="
M179.001831,203.996948 
	C164.031693,203.991318 149.061554,203.985703 133.635010,203.964661 
	C133.178604,203.949234 132.964081,203.939789 132.927979,203.569626 
	C132.183289,195.121826 131.474701,187.044189 131.246582,178.924057 
	C136.162323,178.786423 140.597580,178.691269 145.491089,178.683472 
	C154.632385,178.864822 163.315445,178.958847 171.998901,179.518127 
	C171.999527,184.577347 172.200790,189.182816 171.938126,193.761673 
	C171.717178,197.613403 172.243439,200.467285 176.787720,201.201492 
	C177.653702,201.341400 178.270218,203.025360 179.001831,203.996948 
z"/>
<path fill="#EBE8F3" opacity="1.000000" stroke="none" 
	d="
M179.470306,203.997620 
	C178.270218,203.025360 177.653702,201.341400 176.787720,201.201492 
	C172.243439,200.467285 171.717178,197.613403 171.938126,193.761673 
	C172.200790,189.182816 171.999527,184.577347 172.452515,179.436859 
	C176.273956,178.789597 179.642181,178.688889 183.470581,178.677582 
	C193.665741,178.837555 203.400696,178.908127 213.172012,179.397034 
	C213.627716,187.898911 214.047089,195.982452 214.466461,204.065979 
	C214.466461,204.065979 214.203293,203.974854 214.064056,203.976196 
	C202.596130,203.984451 191.267456,203.991364 179.470306,203.997620 
z"/>
<path fill="#EA2635" opacity="1.000000" stroke="none" 
	d="
M379.074158,225.423401 
	C388.909546,234.447495 394.184082,246.199448 396.999908,259.268921 
	C399.508240,270.911072 397.232788,282.319977 395.581024,293.774261 
	C394.026245,304.556335 392.510315,315.344025 390.723053,326.776001 
	C390.320190,328.282745 390.171570,329.142792 390.022949,330.002808 
	C390.006714,331.067383 389.990479,332.131927 389.965759,333.595703 
	C388.303375,343.369476 386.539948,352.726318 385.018707,362.122406 
	C382.012909,380.687622 379.141571,399.274628 376.213562,417.852417 
	C375.340637,423.390900 374.464111,428.928864 373.321747,434.743866 
	C372.702850,433.131348 372.048035,431.242523 372.044891,429.352600 
	C371.984283,392.866547 372.014801,356.380341 371.957611,319.894287 
	C371.954651,318.012268 371.335724,316.131195 370.633606,314.125549 
	C372.670166,289.401642 375.071716,264.801422 377.487427,240.202576 
	C377.957733,235.413727 378.483093,230.630295 379.074158,225.423401 
z"/>
<path fill="#DFDCEF" opacity="1.000000" stroke="none" 
	d="
M354.996674,208.008713 
	C337.338104,202.079971 319.061890,204.448517 300.532104,203.985031 
	C300.067993,203.981110 299.808136,203.997955 299.832397,203.579468 
	C300.189026,195.099442 300.521393,187.037903 301.328796,178.917236 
	C307.207764,178.772095 312.611694,178.686066 318.474609,178.690887 
	C328.957977,178.721939 338.982391,178.662140 349.254913,178.712219 
	C349.668457,178.895279 349.833923,178.968460 349.988586,179.450775 
	C350.362335,189.472580 346.418213,199.857010 354.996674,208.008713 
z"/>
<path fill="#DCD8EE" opacity="1.000000" stroke="none" 
	d="
M355.221924,208.271790 
	C346.418213,199.857010 350.362335,189.472580 350.450195,179.361816 
	C358.618347,178.773483 366.314209,178.683243 374.456726,178.685776 
	C377.670929,178.846024 380.438416,178.913513 383.205933,178.981003 
	C381.805298,193.698120 380.404663,208.415253 378.922729,223.560837 
	C371.043365,218.837814 363.245239,213.686340 355.221924,208.271790 
z"/>
<path fill="#E32331" opacity="1.000000" stroke="none" 
	d="
M300.853760,178.976364 
	C300.521393,187.037903 300.189026,195.099442 299.706238,203.611694 
	C290.018188,204.036789 280.480499,204.011154 270.425568,203.612976 
	C268.938843,199.759415 267.497009,196.328857 267.118225,192.784698 
	C266.632660,188.241638 267.002411,183.607162 267.471619,179.006836 
	C274.289185,178.985245 280.638824,178.968887 287.452850,178.964844 
	C292.229431,178.976883 296.541595,178.976624 300.853760,178.976364 
z"/>
<path fill="#EA2635" opacity="1.000000" stroke="none" 
	d="
M267.003662,179.012085 
	C267.002411,183.607162 266.632660,188.241638 267.118225,192.784698 
	C267.497009,196.328857 268.938843,199.759415 269.957336,203.606415 
	C268.614380,203.983490 267.222412,203.994598 265.412781,204.014297 
	C258.307373,204.015945 251.619614,204.008987 244.462677,204.012527 
	C243.551239,204.012543 243.108994,204.002060 242.271622,203.635284 
	C238.430389,200.826111 237.686615,197.432205 237.932220,193.383713 
	C238.221954,188.607880 238.001556,183.801132 238.470474,179.003113 
	C245.289459,178.984772 251.640305,178.971100 258.441620,178.968765 
	C261.595947,178.990753 264.299805,179.001419 267.003662,179.012085 
z"/>
<path fill="#FC3846" opacity="1.000000" stroke="none" 
	d="
M130.766113,178.966553 
	C131.474701,187.044189 132.183289,195.121826 132.834076,203.621704 
	C129.484909,204.030884 126.193550,204.017822 122.447662,204.019867 
	C114.636795,204.013733 107.280457,203.992493 99.453674,203.951233 
	C92.756241,199.000168 95.537468,192.074326 95.026405,185.890945 
	C94.863861,183.924301 95.001938,181.932800 95.467484,179.475891 
	C100.283943,178.974976 104.635345,178.950867 109.455727,178.946915 
	C116.871834,178.966888 123.818977,178.966721 130.766113,178.966553 
z"/>
<path fill="#F22837" opacity="1.000000" stroke="none" 
	d="
M238.002335,179.007782 
	C238.001556,183.801132 238.221954,188.607880 237.932220,193.383713 
	C237.686615,197.432205 238.430389,200.826111 241.939865,203.627548 
	C233.115067,203.984192 224.226898,203.992310 214.902603,204.033203 
	C214.047089,195.982452 213.627716,187.898911 213.605652,179.412750 
	C216.330170,178.991623 218.657425,178.973145 221.453690,178.970673 
	C227.282593,178.993713 232.642456,179.000748 238.002335,179.007782 
z"/>
<path fill="#F8E224" opacity="1.000000" stroke="none" 
	d="
M194.997849,34.004723 
	C199.117508,35.910892 203.237167,37.817059 207.675507,39.865940 
	C214.972763,46.438461 221.951340,52.868271 228.966766,60.110962 
	C229.002670,91.798691 229.001709,122.673538 228.573120,153.652405 
	C226.096588,153.838104 224.047684,153.919800 221.533691,153.937393 
	C212.712494,153.765732 204.356384,153.658157 196.000122,153.110107 
	C195.999985,117.895859 196.038254,83.122002 195.955521,48.348431 
	C195.944138,43.566460 195.331909,38.785923 194.997849,34.004723 
z"/>
<path fill="#F7E01D" opacity="1.000000" stroke="none" 
	d="
M229.000748,153.548386 
	C229.001709,122.673538 229.002670,91.798691 229.008423,60.453320 
	C230.740936,61.912815 232.342453,63.977318 234.224243,65.743118 
	C237.515945,68.831894 240.979813,71.737190 244.685471,74.854538 
	C248.705994,75.661888 252.412598,76.334076 256.636108,77.377426 
	C258.102020,79.798157 259.860168,81.841446 259.876099,83.898232 
	C260.055817,107.106842 259.968262,130.317535 259.950989,153.646332 
	C259.949554,153.765015 259.996765,153.996323 259.532043,153.931000 
	C249.045135,153.759903 239.022934,153.654144 229.000748,153.548386 
z"/>
<path fill="#F9E52C" opacity="1.000000" stroke="none" 
	d="
M194.763916,33.736824 
	C195.331909,38.785923 195.944138,43.566460 195.955521,48.348431 
	C196.038254,83.122002 195.999985,117.895859 195.546722,153.214691 
	C191.062119,153.840012 187.030746,153.920258 182.534149,153.939911 
	C175.712692,153.770737 169.356491,153.662186 163.000290,153.553650 
	C163.000000,111.682915 162.999710,69.812187 162.998596,27.473419 
	C167.710510,27.337324 172.423233,27.669281 177.568588,27.999306 
	C183.510818,29.821226 189.020401,31.645079 194.763916,33.736824 
z"/>
<path fill="#DD212F" opacity="1.000000" stroke="none" 
	d="
M439.001160,153.989563 
	C439.000763,158.901474 438.775146,163.827011 439.070770,168.721039 
	C439.310211,172.685440 438.868744,176.081650 435.062256,178.628220 
	C428.639404,178.985962 422.283875,178.985672 415.474548,178.557129 
	C415.347168,170.086807 415.673584,162.044739 416.465027,153.937927 
	C424.287109,153.911987 431.644135,153.950775 439.001160,153.989563 
z"/>
<path fill="#E32331" opacity="1.000000" stroke="none" 
	d="
M416.000000,154.002655 
	C415.673584,162.044739 415.347168,170.086807 415.005615,178.547852 
	C408.302551,178.971329 401.614594,178.975861 394.473328,178.549652 
	C394.346649,170.076782 394.673309,162.034653 395.451599,153.926880 
	C398.925293,153.746841 401.947327,153.632401 405.417969,153.631393 
	C409.244354,153.830765 412.622162,153.916702 416.000000,154.002655 
z"/>
<path fill="#EA2635" opacity="1.000000" stroke="none" 
	d="
M394.999939,153.992508 
	C394.673309,162.034653 394.346649,170.076782 394.004242,178.536469 
	C390.689514,178.972336 387.390503,178.990677 383.648712,178.995010 
	C380.438416,178.913513 377.670929,178.846024 374.453979,178.244705 
	C374.002625,169.803726 374.000702,161.896561 373.998779,153.989410 
	C374.161499,153.911942 374.324188,153.834488 375.187805,153.750458 
	C382.259155,153.826752 388.629547,153.909622 394.999939,153.992508 
z"/>
<path fill="#CA1B28" opacity="1.000000" stroke="none" 
	d="
M390.342560,329.951508 
	C390.171570,329.142792 390.320190,328.282745 390.718933,327.205322 
	C390.866791,327.958649 390.764465,328.929443 390.342560,329.951508 
z"/>
<path fill="#F5DC0D" opacity="1.000000" stroke="none" 
	d="
M291.000000,81.000305 
	C296.090820,82.975418 301.181671,84.950531 306.632935,86.968468 
	C312.582336,92.502312 319.293945,95.166313 327.564026,95.012833 
	C328.000488,114.230965 327.999786,133.442932 327.554138,153.195068 
	C324.072388,153.821350 321.035583,153.907471 317.534180,153.925995 
	C308.713135,153.751343 300.356689,153.644257 292.000061,153.097534 
	C291.999939,131.551208 292.036621,110.444382 291.955658,89.337997 
	C291.944977,86.557587 291.333313,83.779480 291.000000,81.000305 
z"/>
<path fill="#F5D208" opacity="1.000000" stroke="none" 
	d="
M395.451599,153.926880 
	C388.629547,153.909622 382.259155,153.826752 375.429688,153.629791 
	C374.980408,130.483109 375.049988,107.450127 374.896576,84.418625 
	C374.883026,82.380875 373.414948,80.352806 372.286011,78.136322 
	C383.168335,75.558334 393.925079,77.154938 404.669434,82.325890 
	C404.988892,106.472229 404.979126,129.995102 404.969360,153.517975 
	C401.947327,153.632401 398.925293,153.746841 395.451599,153.926880 
z"/>
<path fill="#F72D3C" opacity="1.000000" stroke="none" 
	d="
M317.998779,153.993591 
	C321.035583,153.907471 324.072388,153.821350 327.553650,153.634506 
	C334.688812,153.642014 341.379456,153.750229 348.534424,154.396851 
	C349.001434,162.824295 349.004120,170.713333 349.006775,178.602356 
	C338.982391,178.662140 328.957977,178.721939 318.470581,178.249512 
	C318.004639,169.809372 318.001709,161.901474 317.998779,153.993591 
z"/>
<path fill="#F22837" opacity="1.000000" stroke="none" 
	d="
M349.254883,178.712234 
	C349.004120,170.713333 349.001434,162.824295 348.998779,154.466415 
	C357.022491,153.948730 365.046234,153.899902 373.534363,153.920242 
	C374.000702,161.896561 374.002625,169.803726 374.007263,178.151947 
	C366.314209,178.683243 358.618347,178.773483 350.460938,178.952667 
	C349.833923,178.968460 349.668457,178.895279 349.254883,178.712234 
z"/>
<path fill="#F6CC0D" opacity="1.000000" stroke="none" 
	d="
M405.417938,153.631393 
	C404.979126,129.995102 404.988892,106.472229 404.996918,82.482422 
	C405.800049,82.259880 406.604950,82.504280 407.708435,82.863617 
	C418.052612,87.632263 425.566559,95.266045 432.696655,103.858414 
	C440.798340,116.544319 444.982513,130.054245 443.967987,144.936279 
	C443.789368,147.556046 443.298248,150.154510 442.922668,153.152313 
	C441.855194,153.647888 440.816498,153.753952 439.389465,153.924774 
	C431.644135,153.950775 424.287109,153.911987 416.465027,153.937927 
	C412.622162,153.916702 409.244354,153.830765 405.417938,153.631393 
z"/>
<path fill="#F6DE15" opacity="1.000000" stroke="none" 
	d="
M290.745056,80.727585 
	C291.333313,83.779480 291.944977,86.557587 291.955658,89.337997 
	C292.036621,110.444382 291.999939,131.551208 291.592896,153.200226 
	C289.790222,153.827515 288.394501,153.912460 286.534119,153.930237 
	C277.363770,153.751251 268.658081,153.639465 259.952423,153.527679 
	C259.968262,130.317535 260.055817,107.106842 259.876099,83.898232 
	C259.860168,81.841446 258.102020,79.798157 257.074707,77.379509 
	C263.351379,77.008011 269.706329,77.005600 276.529419,77.004074 
	C281.495087,78.154915 285.992645,79.304886 290.745056,80.727585 
z"/>
<path fill="#FD4E5B" opacity="1.000000" stroke="none" 
	d="
M162.542221,153.657959 
	C169.356491,153.662186 175.712692,153.770737 182.534409,154.408508 
	C183.003418,162.821213 183.006897,170.704681 183.010376,178.588165 
	C179.642181,178.688889 176.273956,178.789597 172.452118,178.971588 
	C163.315445,178.958847 154.632385,178.864822 145.483124,178.243774 
	C145.011292,169.811035 145.005646,161.905350 145.000000,153.999664 
	C150.694717,153.920532 156.389435,153.841385 162.542221,153.657959 
z"/>
<path fill="#FD5864" opacity="1.000000" stroke="none" 
	d="
M144.539536,153.941788 
	C145.005646,161.905350 145.011292,169.811035 145.024887,178.156418 
	C140.597580,178.691269 136.162323,178.786423 131.246582,178.924057 
	C123.818977,178.966721 116.871834,178.966888 109.459885,178.486450 
	C108.996826,170.002625 108.998566,161.999435 109.000305,153.996246 
	C116.360619,153.920715 123.720924,153.845184 131.540436,153.665787 
	C136.026108,153.669250 140.052597,153.776581 144.539536,153.941788 
z"/>
<path fill="#FE5E69" opacity="1.000000" stroke="none" 
	d="
M108.552155,153.942612 
	C108.998566,161.999435 108.996826,170.002625 108.990921,178.466278 
	C104.635345,178.950867 100.283943,178.974976 95.468460,179.008392 
	C92.298744,179.001343 89.593102,178.984985 86.436249,178.942749 
	C85.989929,170.923676 85.994812,162.930466 85.999695,154.468597 
	C90.362999,153.924896 94.726295,153.849854 99.544937,153.670837 
	C102.701515,153.674240 105.402756,153.781601 108.552155,153.942612 
z"/>
<path fill="#FC4754" opacity="1.000000" stroke="none" 
	d="
M183.470581,178.677582 
	C183.006897,170.704681 183.003418,162.821213 182.999664,154.469116 
	C187.030746,153.920258 191.062119,153.840012 195.546875,153.655167 
	C204.356384,153.658157 212.712494,153.765732 221.534073,154.405884 
	C221.661240,162.943878 221.322952,170.949265 220.984665,178.954666 
	C218.657425,178.973145 216.330170,178.991623 213.569305,178.994415 
	C203.400696,178.908127 193.665741,178.837555 183.470581,178.677582 
z"/>
<path fill="#FA3140" opacity="1.000000" stroke="none" 
	d="
M286.998779,153.997421 
	C288.394501,153.912460 289.790222,153.827515 291.593109,153.639862 
	C300.356689,153.644257 308.713135,153.751343 317.534180,153.925995 
	C318.001709,161.901474 318.004639,169.809372 318.011597,178.158661 
	C312.611694,178.686066 307.207764,178.772095 301.328796,178.917236 
	C296.541595,178.976624 292.229431,178.976883 287.456543,178.501541 
	C286.996796,170.016434 286.997772,162.006927 286.998779,153.997421 
z"/>
<path fill="#FC3846" opacity="1.000000" stroke="none" 
	d="
M286.534119,153.930237 
	C286.997772,162.006927 286.996796,170.016434 286.992126,178.489227 
	C280.638824,178.968887 274.289185,178.985245 267.471619,179.006836 
	C264.299805,179.001419 261.595947,178.990753 258.498596,178.587799 
	C258.736694,175.721497 259.790955,173.268234 259.913849,170.769196 
	C260.188202,165.190369 259.997833,159.588684 259.996765,153.996323 
	C259.996765,153.996323 259.949554,153.765015 259.950989,153.646347 
	C268.658081,153.639465 277.363770,153.751251 286.534119,153.930237 
z"/>
<path fill="#FC3E4B" opacity="1.000000" stroke="none" 
	d="
M259.532043,153.931000 
	C259.997833,159.588684 260.188202,165.190369 259.913849,170.769196 
	C259.790955,173.268234 258.736694,175.721497 258.048096,178.576477 
	C251.640305,178.971100 245.289459,178.984772 238.470474,179.003113 
	C232.642456,179.000748 227.282593,178.993713 221.453690,178.970673 
	C221.322952,170.949265 221.661240,162.943878 221.999161,154.469986 
	C224.047684,153.919800 226.096588,153.838104 228.573120,153.652405 
	C239.022934,153.654144 249.045135,153.759903 259.532043,153.931000 
z"/>
</svg>